<?xml version="1.0" encoding="utf-8"?>
<!-- Generator: Adobe Illustrator 22.1.0, SVG Export Plug-In . SVG Version: 6.00 Build 0)  -->
<svg version="1.1" id="Layer_1" xmlns="http://www.w3.org/2000/svg" xmlns:xlink="http://www.w3.org/1999/xlink" x="0px" y="0px"
	 viewBox="0 0 567.1 91.6" style="enable-background:new 0 0 567.1 91.6;" xml:space="preserve">
<style type="text/css">
	.st0{fill:#005DA9;}
	.st1{fill:#55504E;}
	.st2{fill:#EE7203;}
</style>
<path class="st0" d="M166.5,57.2h11.4V5.3h-11.4V57.2z M263.9,45.3l-13.3-40h-16v51.9h11.1l-1-40.8l13.7,40.8H270l13.3-40.4
	l-0.9,40.4h10.7V5.3h-15.9L263.9,45.3z M203,45.2c-1.2-1.4-1.8-4.5-1.8-9.4V5.3h-10.9v30.8c0,3.5,0.3,6.3,0.8,8.3
	c0.7,2.8,2,5.2,3.9,7.3c2.2,2.4,4.8,3.9,7.8,4.7c2,0.5,5.1,0.8,9.3,0.8h13.8v-8.6h-12.8C208.3,48.6,205,47.5,203,45.2z M135.5,25.1
	L122.7,5.3h-12.3l19.8,29v22.9h10.9V34.3l20-29h-12.6L135.5,25.1z M549.9,35.5c7-1.5,10.5-6.4,10.5-14.6c0-5.7-1.6-9.8-4.9-12.3
	c-2.9-2.2-7.3-3.3-13.2-3.3h-26.9v51.9h10.9V36.8h12.8l11.4,20.4h12.3L549.9,35.5z M546.4,26.6c-1.4,0.7-3.6,1-6.7,1h-13.4V14.6
	h13.4c3.2,0,5.4,0.3,6.7,1c2,0.9,3,2.8,3,5.5C549.4,23.8,548.4,25.7,546.4,26.6z M475.4,5.3l-21.9,51.9H465l4.6-12.4h22.5l4.8,12.4
	h12.1L486.9,5.3H475.4z M473.1,35.6l7.6-20l7.9,20H473.1z M360.5,14.6l29.6,0L360.5,48v9.2h43.8V48H375l29.2-33.5V5.3h-43.8V14.6z
	 M321.5,5.3l-21.9,51.9h11.6l4.6-12.4h22.5l4.8,12.4h12.1L333.1,5.3H321.5z M319.3,35.6l7.6-20l7.9,20H319.3z M428.9,45.2
	c-1.2-1.4-1.8-4.5-1.8-9.4V5.3h-10.9v30.8c0,3.5,0.3,6.3,0.8,8.3c0.7,2.8,2,5.2,3.9,7.3c2.2,2.4,4.8,3.9,7.8,4.7
	c2.1,0.5,5.1,0.8,9.3,0.8h13.8v-8.6h-12.8C434.2,48.6,430.8,47.5,428.9,45.2z"/>
<path class="st1" d="M429,72.2L429,72.2l0-2.4h-2.2v0h0v2.4L429,72.2L429,72.2z M316.6,72.2h2.2v-2.4h-2.2L316.6,72.2L316.6,72.2
	L316.6,72.2z M166.3,73.5h-3l0,0h0l-1.1,2.6l-3,7.2l-4-9.8l0,0h-3v0h-7.3c-0.8,0-1.4,0.1-2,0.2c-0.6,0.1-1,0.4-1.4,0.6
	c-0.2,0.2-0.4,0.3-0.5,0.6c0,0,0,0,0,0c0,0,0,0.1,0,0.1c-0.1,0.2-0.3,0.4-0.3,0.6c-0.1,0.3-0.2,0.6-0.2,0.9c-0.1,0.3-0.1,0.7-0.1,1
	c0,0.7,0.1,1.3,0.3,1.8c0.1,0.2,0.2,0.5,0.4,0.7c0.1,0.2,0.3,0.4,0.5,0.5c0.3,0.3,0.8,0.5,1.3,0.6c0.5,0.1,1.2,0.2,1.9,0.2h3.3
	c0.3,0,0.6,0,0.8,0.1c0.2,0,0.4,0.1,0.6,0.2c0.2,0.1,0.3,0.3,0.4,0.5c0.1,0.2,0.1,0.4,0.1,0.6c0,0,0,0.1,0,0.1
	c0,0.3-0.1,0.6-0.2,0.8c-0.1,0.2-0.3,0.4-0.5,0.5c-0.2,0.1-0.4,0.1-0.6,0.2c-0.2,0-0.5,0.1-0.9,0.1H141v2.4h5.3v1.8h0v0h0.5
	c0.4,0,0.6,0,0.8,0.1c0.2,0.1,0.2,0.2,0.2,0.4c0,0,0,0,0,0c0,0.1,0,0.2-0.1,0.3c0,0,0,0,0,0c-0.1,0.1-0.1,0.1-0.2,0.2
	c-0.1,0-0.2,0.1-0.4,0.1c-0.2,0-0.6,0-1-0.1c-0.4-0.1-0.8-0.1-1.3-0.3h0v1.1c0.2,0.1,0.4,0.1,0.7,0.2c0.7,0.1,1.3,0.2,1.8,0.2
	c0.4,0,0.7,0,0.9-0.1c0.3-0.1,0.5-0.2,0.6-0.3c0,0,0,0,0,0c0,0,0,0,0,0c0.2-0.1,0.3-0.3,0.4-0.5c0.1-0.2,0.1-0.5,0.1-0.7
	c0,0,0,0,0,0v0c0,0,0-0.1,0-0.1c0,0,0,0.1,0,0.1c0-0.3,0-0.5-0.1-0.7c-0.1-0.2-0.2-0.4-0.4-0.5c-0.2-0.1-0.4-0.2-0.6-0.3
	c-0.2-0.1-0.5-0.1-0.9-0.1h-0.1v-0.7h1.1c0.7,0,1.4-0.1,2-0.2c0.6-0.1,1-0.4,1.4-0.6c-0.1,0.1-0.2,0.1-0.3,0.2
	c0.1-0.1,0.2-0.1,0.3-0.2c0,0,0,0,0,0c0,0,0,0,0,0c0,0,0,0,0,0c0.2-0.1,0.3-0.3,0.4-0.4c0,0,0.1-0.1,0.1-0.1
	c0.2-0.2,0.3-0.4,0.4-0.7c0.1-0.3,0.2-0.5,0.2-0.8c0.1-0.3,0.1-0.6,0.1-1c0-0.7-0.1-1.3-0.3-1.8c-0.1-0.2-0.2-0.5-0.3-0.7
	c-0.1-0.2-0.3-0.4-0.5-0.5c0.1,0.1,0.2,0.2,0.3,0.3c-0.1-0.1-0.2-0.2-0.3-0.3c-0.1-0.1-0.2-0.1-0.4-0.2c0.1,0.1,0.3,0.1,0.4,0.2
	c-0.3-0.3-0.7-0.4-1.3-0.6c-0.5-0.1-1.1-0.2-1.9-0.2h-3.7c-0.3,0-0.6,0-0.8-0.1c0.1,0,0.2,0,0.2,0c-0.1,0-0.2,0-0.2,0
	c-0.1,0-0.2-0.1-0.3-0.1c0.1,0,0.2,0.1,0.3,0.1c-0.3-0.1-0.6-0.3-0.7-0.5c-0.2-0.2-0.2-0.5-0.2-0.9c0-0.2,0-0.4,0.1-0.6
	c0,0,0-0.1,0-0.1c0.1-0.2,0.2-0.3,0.3-0.5c0,0,0.1-0.1,0.2-0.1c0.2-0.1,0.4-0.2,0.6-0.3c0.3-0.1,0.6-0.1,0.9-0.1h6.9v-1.9l5.6,12.7
	h2.9L166.3,73.5L166.3,73.5z M140.4,77.5C140.4,77.5,140.4,77.5,140.4,77.5c0-0.1,0-0.2,0-0.3C140.4,77.4,140.4,77.4,140.4,77.5z
	 M148.8,87.8C148.9,87.8,148.9,87.9,148.8,87.8C148.9,87.9,148.9,87.8,148.8,87.8C148.8,87.8,148.8,87.8,148.8,87.8z M147.7,89
	C147.7,89,147.7,89,147.7,89C147.7,89,147.7,89,147.7,89C147.7,89,147.7,89,147.7,89z M152.7,84.4c0,0.1,0,0.2-0.1,0.2
	c-0.1,0.2-0.2,0.4-0.3,0.6C152.5,84.9,152.6,84.7,152.7,84.4z M152.3,85.2C152.3,85.2,152.3,85.3,152.3,85.2
	c-0.1,0.1-0.1,0.2-0.2,0.2C152.2,85.3,152.2,85.3,152.3,85.2z M152.3,75.9L152.3,75.9l0-1.9l0,0V75.9z M159.2,83.3l-4-9.8h0
	L159.2,83.3L159.2,83.3z M561.1,72.2h2.2v0h0v-2.4h-2.2L561.1,72.2L561.1,72.2L561.1,72.2z M227,72.2h2.2v-2.4H227L227,72.2
	L227,72.2L227,72.2z M169.9,73.6c-0.5,0.1-0.9,0.2-1.3,0.3c-0.4,0.1-0.8,0.3-1.1,0.6c-0.3,0.2-0.6,0.5-0.9,0.8
	c-0.2,0.3-0.4,0.6-0.6,0.9c-0.2,0.3-0.3,0.7-0.4,1.2c-0.1,0.4-0.2,0.9-0.3,1.4c-0.1,0.5-0.1,1-0.1,1.6c0,0.6,0,1.2,0.1,1.7
	c0,0,0,0.1,0,0.1c0,0.3,0.1,0.5,0.2,0.8c0,0.2,0.1,0.3,0.2,0.5c0,0,0,0,0,0.1c0,0,0,0,0,0c0.1,0.3,0.3,0.6,0.5,0.9
	c-0.2-0.3-0.3-0.6-0.5-0.9c0.2,0.4,0.3,0.7,0.5,1c0.3,0.4,0.7,0.8,1.1,1.1c-0.1-0.1-0.2-0.2-0.3-0.2c0.3,0.2,0.6,0.5,0.9,0.6
	c0.3,0.2,0.7,0.3,1,0.4c0.6,0.2,1.4,0.3,2.4,0.3h4.7v-2.3h-4.6c-0.6,0-1.1-0.1-1.5-0.2c-0.4-0.1-0.7-0.3-1-0.6
	c-0.2-0.3-0.4-0.6-0.5-1c-0.1-0.4-0.2-0.9-0.2-1.5h7.7v-2.3h-7.7c0-0.5,0.1-0.9,0.2-1.2c0.1-0.2,0.1-0.4,0.2-0.5
	c0.1-0.2,0.2-0.4,0.4-0.5c0.2-0.2,0.6-0.4,0.9-0.6c0,0,0.1,0,0.1,0c0.4-0.1,0.8-0.2,1.3-0.2h4.6v-2.3h-4.6
	C170.9,73.5,170.4,73.5,169.9,73.6z M165.2,80.3c0-0.6,0-1.1,0.1-1.6c0,0,0,0,0,0C165.2,79.2,165.2,79.8,165.2,80.3z M165.3,78.7
	c0.1-0.5,0.1-0.9,0.3-1.3C165.4,77.8,165.3,78.3,165.3,78.7z M165.6,77.4c0.1-0.4,0.3-0.8,0.4-1.1C165.8,76.6,165.7,77,165.6,77.4z
	 M166.6,75.3c0.2-0.3,0.5-0.5,0.8-0.8C167.1,74.7,166.9,75,166.6,75.3z M167.5,74.5c0.3-0.2,0.7-0.4,1-0.5
	C168.1,74.1,167.8,74.3,167.5,74.5z M168.6,73.9c0.4-0.1,0.8-0.2,1.2-0.3C169.4,73.7,169,73.8,168.6,73.9z M329.8,72.2L329.8,72.2
	l0-2.4h-2.2v2.4L329.8,72.2L329.8,72.2z M136.4,86.7h2.9V73.5h-2.9V86.7z M136.4,73.5h2.9v0L136.4,73.5L136.4,73.5z M190.7,72.2h2.2
	v0h0v-2.4h-2.2L190.7,72.2L190.7,72.2L190.7,72.2z M131,84.3C131,84.3,131,84.3,131,84.3c-0.4-0.1-0.8-0.4-1-0.6c0,0,0,0,0,0
	c-0.1-0.2-0.3-0.5-0.3-0.9c-0.1-0.4-0.1-0.9-0.1-1.5v-7.8h-2.8v7.8c0,0.9,0.1,1.6,0.2,2.1c0.1,0.4,0.2,0.7,0.4,1
	c0.2,0.3,0.4,0.6,0.6,0.8c0.3,0.3,0.6,0.5,0.9,0.7c0.3,0.2,0.7,0.3,1.1,0.4c0.5,0.1,1.3,0.2,2.4,0.2h3.5v-2.2h-3.3
	C131.9,84.5,131.4,84.4,131,84.3z M127,83.5c0-0.1,0-0.1,0-0.2C126.9,83.3,126.9,83.4,127,83.5c0,0.1,0.1,0.2,0.1,0.3
	C127,83.7,127,83.6,127,83.5z M127.3,84.5C127.3,84.4,127.3,84.4,127.3,84.5C127.3,84.5,127.4,84.5,127.3,84.5
	C127.4,84.5,127.4,84.5,127.3,84.5z M118.5,73.5l-5.6,13.2v0h2.9l0,0h0l0.6-1.7l0.5-1.4h5.7l1.2,3.1h3.1l-5.6-13.2H118.5z
	 M112.9,86.7L112.9,86.7l2.4-5.6L112.9,86.7z M124,86.7L124,86.7l-1.2-3.1h-5.7l0,0h5.7L124,86.7z M118,81.2l1.9-5.1l2,5.1H118z
	 M316.3,86.7h2.9V73.5h-2.9v0h2.9v0h-2.9V86.7z M426.4,86.7h2.9V73.5h-2.9V86.7z M426.4,73.5h2.9v0L426.4,73.5L426.4,73.5z
	 M471.3,73.6c-0.5,0.1-0.9,0.2-1.3,0.3c-0.4,0.1-0.8,0.3-1.1,0.6c0,0,0,0,0,0c-0.3,0.2-0.6,0.5-0.9,0.8c0.3-0.3,0.5-0.6,0.9-0.8
	c-0.3,0.2-0.6,0.5-0.9,0.8c-0.2,0.3-0.4,0.6-0.6,0.9c-0.2,0.3-0.3,0.7-0.4,1.2c-0.1,0.4-0.2,0.9-0.3,1.4c-0.1,0.5-0.1,1-0.1,1.6
	c0,0.6,0,1.2,0.1,1.7c0.1,0.5,0.2,1,0.4,1.4c0,0,0,0,0,0.1c0,0,0,0,0,0c0.2,0.4,0.4,0.8,0.7,1.2c0-0.1-0.1-0.1-0.1-0.1c0,0,0,0,0,0
	c0,0,0,0,0,0c0,0.1,0.1,0.1,0.1,0.2c0,0,0.1,0.1,0.1,0.1c0.2,0.2,0.3,0.4,0.5,0.6c-0.1-0.1-0.3-0.3-0.4-0.5c0.2,0.3,0.4,0.5,0.7,0.7
	c-0.1-0.1-0.2-0.1-0.3-0.2c0.3,0.2,0.6,0.5,0.9,0.6c0.3,0.2,0.7,0.3,1,0.4c0.3,0.1,0.6,0.1,1,0.2c0.4,0,0.9,0.1,1.4,0.1h4.7v-2.3
	h-4.6c-0.6,0-1.1-0.1-1.5-0.2c-0.4-0.1-0.7-0.3-1-0.6c-0.2-0.3-0.4-0.6-0.5-1c-0.1-0.4-0.2-0.9-0.2-1.5h7.7v-2.3h-7.7
	c0-0.5,0.1-0.9,0.2-1.3c0.1-0.2,0.1-0.3,0.2-0.4c-0.1,0.1-0.1,0.2-0.2,0.3c0.1-0.1,0.1-0.2,0.2-0.3c0,0,0,0,0,0
	c0-0.1,0.1-0.1,0.1-0.2c0,0,0,0,0,0c0,0,0,0,0,0c0,0,0,0,0,0c0.1-0.1,0.2-0.3,0.3-0.4c0.3-0.3,0.6-0.4,1-0.6
	c0.4-0.1,0.8-0.2,1.3-0.2h4.6v-2.3h-4.6C472.3,73.5,471.8,73.5,471.3,73.6z M466.6,80.3c0-0.6,0-1.1,0.1-1.6
	C466.6,79.2,466.6,79.8,466.6,80.3z M467,77.3c0.1-0.4,0.2-0.8,0.4-1.1C467.2,76.6,467.1,76.9,467,77.3z M468.9,74.5
	c0.3-0.2,0.7-0.4,1.1-0.5C469.6,74.1,469.2,74.3,468.9,74.5z M470,73.9c0.4-0.1,0.8-0.2,1.2-0.3C470.8,73.7,470.4,73.8,470,73.9z
	 M471.3,73.6c0.4-0.1,0.9-0.1,1.4-0.1C472.3,73.5,471.8,73.5,471.3,73.6z M463.9,81c0,0,0.1,0,0.1,0c0.2-0.1,0.4-0.2,0.5-0.2
	c0.3-0.2,0.6-0.5,0.8-0.8c0.2-0.3,0.4-0.7,0.5-1.1c0.1-0.4,0.2-0.9,0.2-1.4c0-0.4,0-0.7-0.1-1c-0.1-0.3-0.1-0.6-0.2-0.9
	c-0.1-0.3-0.2-0.5-0.4-0.7c-0.2-0.2-0.3-0.4-0.5-0.6c-0.4-0.3-0.8-0.5-1.4-0.6c-0.6-0.1-1.2-0.2-2-0.2h-6.8v13.1L449,73.5H446
	L441.1,85v-0.6h-4.6c-0.6,0-1.2-0.1-1.6-0.3c-0.2-0.1-0.4-0.2-0.6-0.3c-0.2-0.1-0.3-0.3-0.4-0.5c-0.2-0.3-0.4-0.7-0.5-1.2
	c-0.1-0.5-0.2-1.1-0.2-1.7c0-0.7,0-1.3,0.1-1.9c0,0,0,0,0,0c0.1-0.5,0.2-1,0.4-1.3c0.1-0.2,0.3-0.5,0.4-0.6c0.2-0.2,0.4-0.3,0.6-0.5
	c0.1-0.1,0.3-0.1,0.4-0.2c0.2-0.1,0.4-0.1,0.6-0.2c0.2,0,0.4-0.1,0.6-0.1h4.6v-2.3h-4.6c-0.5,0-1.1,0-1.5,0.1
	c-0.5,0.1-0.9,0.2-1.3,0.3c-0.4,0.1-0.8,0.3-1.1,0.6c0,0,0,0,0,0c-0.3,0.2-0.6,0.5-0.9,0.8c0,0,0,0,0,0c0,0,0,0,0,0
	c-0.2,0.3-0.4,0.6-0.6,0.9c-0.2,0.3-0.3,0.7-0.4,1.2c-0.1,0.4-0.2,0.9-0.3,1.4c-0.1,0.5-0.1,1-0.1,1.6c0,0.3,0,0.5,0,0.8
	c0.1,0.8,0.2,1.5,0.4,2.1c0,0.1,0,0.1,0.1,0.2c0,0,0,0,0-0.1c0,0,0,0,0,0.1c0.2,0.4,0.3,0.7,0.5,1c0,0,0,0,0,0c0,0,0,0,0,0
	c0.2,0.3,0.5,0.6,0.7,0.9c0.3,0.2,0.6,0.5,0.9,0.6c0.3,0.2,0.7,0.3,1,0.4c0.6,0.2,1.4,0.3,2.4,0.3h6.9l1.2-3.1h5.7l1.2,3.1h5.8v-5.2
	h3.3l2.9,5.2h3.1l-3.3-5.5C463.5,81.1,463.7,81.1,463.9,81z M430.3,80.2c0-0.5,0-1,0.1-1.4C430.4,79.3,430.3,79.7,430.3,80.2z
	 M432.1,85.3C432.1,85.3,432.1,85.3,432.1,85.3C432.1,85.4,432.1,85.4,432.1,85.3C432.1,85.4,432.1,85.4,432.1,85.3z M431.7,75.3
	c0.2-0.3,0.5-0.5,0.8-0.8C432.2,74.8,432,75,431.7,75.3z M432.6,74.5c0.3-0.2,0.7-0.4,1-0.5C433.3,74.1,432.9,74.3,432.6,74.5z
	 M447.4,76.1L447.4,76.1L447.4,76.1L447.4,76.1z M449.4,81.2h-3.9l1.9-5.1L449.4,81.2z M443.9,78.6l2.2-5.1h0L443.9,78.6z
	 M444.6,83.5L444.6,83.5l5.7,0l0,0H444.6z M449,73.5L449,73.5l2.2,5L449,73.5z M457.3,75.9L457.3,75.9l3.4,0c0.4,0,0.7,0,1,0.1
	c-0.3,0-0.6-0.1-1-0.1H457.3z M463,78.4c-0.1,0.2-0.3,0.4-0.6,0.5c0,0-0.1,0-0.2,0.1c0,0-0.1,0-0.1,0.1c0,0,0,0,0,0
	c-0.3,0.1-0.8,0.1-1.4,0.1h-3.4v-3.3h3.4c0.4,0,0.7,0,1,0.1c0.3,0,0.5,0.1,0.7,0.2c0.2,0.1,0.4,0.3,0.6,0.5c0.1,0.2,0.2,0.5,0.2,0.9
	C463.2,77.9,463.1,78.1,463,78.4z M499.5,84.3c-0.1,0-0.1-0.1-0.2-0.1c-0.3-0.1-0.6-0.3-0.8-0.6c-0.2-0.2-0.3-0.5-0.3-0.9
	c-0.1-0.4-0.1-0.9-0.1-1.5v-7.8h-2.8v7.8c0,0.9,0.1,1.6,0.2,2.1c0.1,0.4,0.2,0.7,0.4,1c0.2,0.3,0.4,0.6,0.6,0.8
	c0.3,0.3,0.6,0.5,0.9,0.7c0.3,0.2,0.7,0.3,1.1,0.4c0.5,0.1,1.3,0.2,2.4,0.2h3.5v-2.2H501C500.4,84.5,499.9,84.4,499.5,84.3z
	 M477.5,75.8h4.3v10.9h0v0h2.9v0h0V75.8h4.3v-2.3h-11.4V75.8z M426,73.5h-11.4v2.3h4.3v10.9h0v0h2.9v0h0V75.8h4.3L426,73.5L426,73.5
	L426,73.5z M392.1,86.7h2.9V73.5h-2.9V86.7z M392.1,73.5h2.9v0L392.1,73.5l0,13.2h0V73.5z M408,80.3c-0.1-0.2-0.3-0.4-0.5-0.5
	c0,0,0,0,0,0c0,0,0,0,0,0c-0.1,0-0.1-0.1-0.2-0.1c0.1,0,0.1,0.1,0.2,0.1c-0.3-0.3-0.7-0.4-1.3-0.6c-0.5-0.1-1.1-0.2-1.9-0.2h-3.7
	c-0.3,0-0.6,0-0.8-0.1c-0.3-0.1-0.6-0.3-0.7-0.5c-0.2-0.2-0.2-0.5-0.2-0.9c0-0.3,0-0.5,0.1-0.8c0.1-0.2,0.2-0.4,0.4-0.5
	c0,0,0.1,0,0.1-0.1c0.2-0.1,0.4-0.2,0.6-0.3c0.3-0.1,0.6-0.1,0.9-0.1h6.9v-2.4h-7.3c-0.8,0-1.4,0.1-2,0.2c-0.6,0.1-1,0.4-1.4,0.6
	c-0.2,0.2-0.4,0.3-0.5,0.6c-0.2,0.2-0.3,0.5-0.4,0.7c-0.1,0.1-0.1,0.3-0.1,0.4c-0.1,0.3-0.1,0.5-0.1,0.8c0,0.2,0,0.4,0,0.6
	c0,0.4,0.1,0.8,0.1,1.2c0.1,0.3,0.2,0.6,0.3,0.8c0.1,0.2,0.2,0.3,0.3,0.5c0.1,0.2,0.3,0.4,0.5,0.5c0.3,0.3,0.8,0.5,1.3,0.6
	c0.5,0.1,1.2,0.2,1.9,0.2h3.3c0.6,0,1.1,0.1,1.4,0.3c0.2,0.1,0.3,0.3,0.4,0.5c0,0,0,0,0,0c0.1,0.2,0.1,0.5,0.1,0.8
	c0,0.3-0.1,0.6-0.2,0.8c-0.1,0.2-0.3,0.4-0.5,0.5c-0.3,0.2-0.8,0.2-1.5,0.2h-6.9v2.4h5.3v1.8h0.5c0.4,0,0.6,0,0.8,0.1c0,0,0,0,0,0
	c0.1,0.1,0.2,0.2,0.2,0.4c0,0.2-0.1,0.3-0.2,0.4c-0.1,0.1-0.3,0.1-0.5,0.1c-0.2,0-0.6,0-1-0.1c-0.4-0.1-0.8-0.1-1.3-0.3v1.1
	c0.2,0.1,0.4,0.1,0.7,0.2c0.7,0.1,1.3,0.2,1.8,0.2c0.4,0,0.7,0,0.9-0.1c0.2,0,0.3-0.1,0.5-0.2c0.2-0.1,0.4-0.3,0.5-0.6
	c0,0,0-0.1,0.1-0.1c0,0,0-0.1,0-0.1c0.1-0.2,0.1-0.4,0.1-0.7c0-0.4-0.1-0.7-0.3-1c-0.1-0.1-0.1-0.2-0.2-0.2
	c-0.2-0.1-0.4-0.2-0.6-0.3c-0.2-0.1-0.5-0.1-0.9-0.1h-0.1v-0.7h1.1c0.7,0,1.4-0.1,2-0.2c0.6-0.1,1-0.4,1.4-0.6c0,0-0.1,0.1-0.2,0.1
	c0,0,0.1-0.1,0.2-0.1c0.3-0.2,0.5-0.5,0.7-0.8c0,0.1-0.1,0.1-0.1,0.2c0.2-0.2,0.3-0.4,0.4-0.7c0.1-0.3,0.2-0.5,0.2-0.8
	c0.1-0.3,0.1-0.6,0.1-1c0-0.7-0.1-1.3-0.3-1.8C408.3,80.7,408.2,80.5,408,80.3z M400,78.9c-0.1,0-0.2-0.1-0.2-0.1
	C399.8,78.9,399.9,78.9,400,78.9c0.1,0,0.1,0,0.2,0C400.1,79,400.1,79,400,78.9z M503.5,75.8h4.3v10.9h0v0h2.9v0h0V75.8h4.3v-2.3
	h-11.4V75.8z M560.8,86.7h2.9V73.5h-2.9V86.7z M560.8,73.5h2.9v0L560.8,73.5L560.8,73.5z M564.9,84.4L564.9,84.4l2.2,0v0L564.9,84.4
	l0,2.3h2.2v-2.3H564.9z M549,75.8h4.3v10.9h0v0h2.9v0h0V75.8h4.3v-2.3H549V75.8z M527.9,84.4h2.2v0L527.9,84.4v2.3h2.2v-2.3
	L527.9,84.4L527.9,84.4z M527.4,78.8c0,0,0-0.1,0-0.1c-0.1-0.5-0.1-0.9-0.3-1.3c-0.1-0.4-0.3-0.8-0.4-1.2c-0.2-0.3-0.4-0.7-0.6-0.9
	c-0.3-0.3-0.5-0.6-0.9-0.8c-0.3-0.2-0.7-0.4-1.1-0.6c-0.1,0-0.1,0-0.2-0.1c-0.2-0.1-0.3-0.1-0.5-0.1c-0.2,0-0.4-0.1-0.6-0.1
	c-0.5-0.1-1-0.1-1.5-0.1h-6v13.2h6.1c1.1,0,1.9-0.1,2.4-0.3c0.3-0.1,0.6-0.2,0.9-0.4s0.5-0.3,0.8-0.5c0.3-0.3,0.6-0.5,0.8-0.9
	c0.1-0.1,0.1-0.2,0.2-0.3c0.2-0.3,0.4-0.6,0.5-1c0.2-0.4,0.3-0.9,0.4-1.4c0-0.1,0-0.1,0-0.2c0.1-0.5,0.1-1,0.1-1.5c0,0,0,0,0,0
	C527.5,79.8,527.5,79.3,527.4,78.8z M524.4,82c-0.1,0.5-0.2,0.9-0.4,1.2c-0.1,0.2-0.3,0.4-0.4,0.5c-0.2,0.1-0.4,0.3-0.6,0.4
	c-0.4,0.2-1,0.3-1.7,0.3h-3.2v-8.6h3.2c0.7,0,1.2,0.1,1.7,0.3c0.2,0.1,0.4,0.2,0.6,0.4c0.2,0.2,0.3,0.3,0.4,0.5
	c0.2,0.3,0.3,0.7,0.4,1.2c0.1,0.5,0.1,1.1,0.1,1.9C524.5,80.8,524.5,81.5,524.4,82z M524.7,86.1C524.7,86.1,524.7,86.1,524.7,86.1
	C524.7,86.1,524.7,86.1,524.7,86.1C524.7,86.1,524.7,86.1,524.7,86.1z M548.6,80.3c-0.1-0.2-0.3-0.4-0.5-0.5c0,0,0,0,0,0
	c0,0,0,0,0,0c-0.1-0.1-0.2-0.1-0.3-0.2c0.1,0.1,0.2,0.1,0.3,0.2c-0.3-0.3-0.7-0.4-1.3-0.6c-0.5-0.1-1.1-0.2-1.9-0.2h-3.7
	c-0.3,0-0.6,0-0.8-0.1c-0.3-0.1-0.6-0.3-0.7-0.5c-0.2-0.2-0.2-0.5-0.2-0.9c0-0.3,0-0.5,0.1-0.8c0.1-0.2,0.2-0.4,0.4-0.5
	c0.2-0.1,0.4-0.2,0.7-0.3c0.3-0.1,0.6-0.1,0.9-0.1h6.9v-2.4h-7.3c-0.8,0-1.4,0.1-2,0.2c-0.6,0.1-1,0.4-1.4,0.6c0,0,0,0,0,0
	c0,0,0,0,0,0c0,0-0.1,0.1-0.1,0.1c-0.2,0.1-0.3,0.3-0.4,0.4c-0.2,0.2-0.3,0.5-0.4,0.7c-0.2,0.5-0.3,1.2-0.3,1.9
	c0,0.7,0.1,1.3,0.3,1.8c0.1,0.2,0.2,0.5,0.4,0.7c0.1,0.2,0.3,0.4,0.5,0.5c0.3,0.3,0.8,0.5,1.3,0.6c0.5,0.1,1.2,0.2,1.9,0.2h3.3
	c0.6,0,1.1,0.1,1.4,0.3c0.2,0.1,0.3,0.3,0.4,0.5c0.1,0.2,0.1,0.5,0.1,0.8c0,0.3-0.1,0.6-0.2,0.8c-0.1,0.2-0.3,0.4-0.5,0.5
	c-0.3,0.2-0.8,0.2-1.5,0.2h-6.9v2.4h5.3v1.8h0.5c0.4,0,0.6,0,0.8,0.1c0,0,0,0,0,0c0.1,0.1,0.2,0.2,0.2,0.4c0,0.2-0.1,0.3-0.2,0.4
	c-0.1,0.1-0.3,0.1-0.5,0.1c-0.2,0-0.6,0-1-0.1c-0.4-0.1-0.8-0.1-1.3-0.3v1.1c0.2,0.1,0.5,0.1,0.7,0.2c0.7,0.1,1.3,0.2,1.8,0.2
	c0.4,0,0.7,0,0.9-0.1c0.2-0.1,0.4-0.1,0.6-0.3c0.1,0,0.1-0.1,0.2-0.1c0.1-0.1,0.3-0.3,0.3-0.5c0.1-0.2,0.1-0.5,0.1-0.7
	c0-0.3,0-0.5-0.1-0.7c-0.1-0.2-0.2-0.4-0.4-0.5c-0.2-0.1-0.4-0.2-0.6-0.3c-0.2-0.1-0.5-0.1-0.9-0.1h-0.1v-0.7h1.1
	c0.7,0,1.4-0.1,2-0.2c0.6-0.1,1-0.4,1.4-0.6c0.2-0.2,0.4-0.3,0.6-0.5c0.2-0.2,0.3-0.4,0.4-0.7c0.1-0.3,0.2-0.5,0.2-0.8
	c0.1-0.3,0.1-0.6,0.1-1c0-0.7-0.1-1.3-0.3-1.8C548.9,80.7,548.8,80.5,548.6,80.3z M540.6,78.9c-0.1,0-0.2-0.1-0.2-0.1
	C540.4,78.9,540.5,78.9,540.6,78.9c0.1,0,0.1,0,0.2,0C540.7,79,540.6,79,540.6,78.9z M548,85.8c0,0-0.1,0.1-0.1,0.1
	C547.9,85.9,547.9,85.9,548,85.8C548,85.8,548,85.8,548,85.8C548,85.8,548,85.8,548,85.8z M391,78.7c-0.1-0.5-0.1-0.9-0.3-1.3
	c0,0,0,0,0,0c-0.1-0.4-0.3-0.8-0.4-1.1c-0.2-0.3-0.4-0.7-0.6-0.9c-0.3-0.3-0.5-0.6-0.9-0.8c-0.3-0.2-0.7-0.4-1.1-0.6c0,0,0,0,0,0
	c-0.4-0.1-0.8-0.3-1.3-0.3c0,0,0,0,0,0c-0.5-0.1-1-0.1-1.5-0.1h-6v13.2h6.1c1.1,0,1.9-0.1,2.4-0.3c0.3-0.1,0.6-0.2,0.9-0.4
	c0.3-0.1,0.5-0.3,0.8-0.5c0.3-0.3,0.6-0.6,0.9-0.9c0.2-0.3,0.5-0.7,0.6-1.2c0.2-0.4,0.3-0.9,0.4-1.4c0.1-0.5,0.1-1.1,0.1-1.7
	C391.1,79.8,391.1,79.3,391,78.7C391,78.8,391,78.7,391,78.7z M387.9,82c-0.1,0.5-0.2,0.9-0.4,1.2c-0.1,0.2-0.3,0.4-0.4,0.5
	c-0.2,0.1-0.4,0.3-0.6,0.4c-0.4,0.2-1,0.3-1.7,0.3h-3.2v-8.6h3.2c0.7,0,1.2,0.1,1.7,0.3c0.2,0.1,0.4,0.2,0.6,0.4
	c0.2,0.2,0.3,0.3,0.4,0.5c0.2,0.3,0.3,0.7,0.4,1.2c0.1,0.5,0.1,1.1,0.1,1.9C388.1,80.8,388,81.5,387.9,82z M187.5,80.7
	c0.3-0.2,0.6-0.5,0.8-0.8c0.1-0.1,0.2-0.3,0.3-0.5c0.3-0.6,0.4-1.2,0.4-2c0-0.2,0-0.4,0-0.6c0-0.1,0-0.3,0-0.4
	c-0.1-0.3-0.1-0.6-0.2-0.9c-0.1-0.3-0.2-0.5-0.4-0.7c-0.2-0.2-0.3-0.4-0.6-0.6c-0.4-0.3-0.8-0.5-1.4-0.6c-0.6-0.1-1.2-0.2-2-0.2
	h-6.8v13.2h2.8v-5.2h3.3l2.9,5.2h3.1l-3.3-5.5C186.7,81.1,187.1,80.9,187.5,80.7z M180.3,75.9L180.3,75.9l3.4,0c0.4,0,0.7,0,1,0.1
	c-0.3,0-0.6-0.1-1-0.1H180.3z M186,78.4c-0.1,0.2-0.2,0.3-0.3,0.4c-0.1,0.1-0.1,0.1-0.2,0.2c-0.1,0.1-0.2,0.1-0.4,0.1
	c-0.3,0.1-0.8,0.1-1.3,0.1h-3.4v-3.3h3.4c0.4,0,0.7,0,1,0.1c0.3,0,0.5,0.1,0.7,0.2c0,0,0,0,0.1,0c0.2,0.1,0.4,0.3,0.5,0.5
	c0.1,0.2,0.2,0.5,0.2,0.9C186.2,77.9,186.1,78.1,186,78.4z M189.6,86.7L189.6,86.7l-3.3-5.5h0L189.6,86.7z M251.4,83.7l-0.5-1.6
	l-2.8-8.6v0H244v13.2h2.8l-0.3-10.4l2.4,7.2l1.1,3.1h0l0,0h2.9l3.4-10.3l-0.1,6.1l-0.1,4.2h0v0h2.7V73.5h-4.1L251.4,83.7z
	 M246.5,76.3L246.5,76.3L246.5,76.3L246.5,76.3z M251.4,83.7L251.4,83.7l0.8-2.5L251.4,83.7z M256.3,76.4L256.3,76.4L256.3,76.4
	L256.3,76.4z M270.8,75.8h4.3v10.9h0v0h2.9v0h0V75.8h4.3v-2.3h-11.4V75.8z M231.1,75.9h7.5l-7.5,8.5v2.3h11.1v-2.3h-7.4l7.4-8.5
	v-2.4h-11.1V75.9z M231.1,75.9l0.5,0L231.1,75.9L231.1,75.9z M264.5,73.6c-0.5,0.1-0.9,0.2-1.3,0.3c-0.4,0.1-0.8,0.3-1.1,0.6
	c0,0,0,0,0,0c-0.3,0.2-0.6,0.5-0.9,0.8c0,0,0,0,0,0c0,0,0,0,0,0c-0.2,0.3-0.4,0.6-0.6,0.9c0,0,0,0,0,0c-0.2,0.3-0.3,0.7-0.4,1.1
	c0,0,0,0,0,0c-0.1,0.4-0.2,0.9-0.3,1.3c0,0,0,0,0,0c-0.1,0.5-0.1,1-0.1,1.6c0,0,0,0,0,0c0,0.2,0,0.4,0,0.6c0,0.4,0,0.7,0.1,1.1
	c0.1,0.5,0.2,1,0.4,1.4c0,0,0,0,0,0.1c0,0,0,0,0,0c0.2,0.4,0.3,0.7,0.5,1c0,0,0,0,0,0c0,0,0,0,0,0c0.2,0.3,0.5,0.6,0.7,0.9
	c0.3,0.2,0.6,0.5,0.9,0.6c0.3,0.2,0.7,0.3,1,0.4c0.6,0.2,1.4,0.3,2.4,0.3h4.7v-2.3h-4.6c-0.6,0-1.1-0.1-1.5-0.2
	c-0.4-0.1-0.7-0.3-1-0.6c-0.2-0.2-0.4-0.5-0.5-0.9c0-0.1-0.1-0.2-0.1-0.3c-0.1-0.4-0.2-0.8-0.2-1.3h7.7v-2.3H263
	c0-0.5,0.1-0.9,0.2-1.3c0.1-0.4,0.4-0.7,0.6-1c0.3-0.3,0.6-0.4,1-0.6c0.4-0.1,0.8-0.2,1.3-0.2h4.6v-2.3H266
	C265.5,73.5,265,73.5,264.5,73.6z M262.1,74.5c0.3-0.2,0.6-0.4,1-0.5C262.8,74.1,262.4,74.3,262.1,74.5z M263.2,73.9
	c0.4-0.1,0.8-0.2,1.2-0.3C264,73.7,263.6,73.8,263.2,73.9z M264.6,73.6c0.4-0.1,0.9-0.1,1.4-0.1C265.5,73.5,265,73.5,264.6,73.6z
	 M226.7,86.7h2.9V73.5h-2.9V86.7z M226.7,73.5h2.9v0L226.7,73.5L226.7,73.5z M190.4,73.5L190.4,73.5l0,13.2h2.9V73.5L190.4,73.5
	L190.4,73.5z M190.4,73.5h2.9v13.2h0V73.5L190.4,73.5L190.4,73.5z M222.1,78.8H217v-5.3h-2.8v0h0v13.2h0v0h2.8v-5.5h5.1v5.5h2.8
	V73.5h-2.8V78.8z M206.3,80.3c-0.1-0.2-0.3-0.4-0.5-0.5c-0.3-0.3-0.7-0.4-1.3-0.6c-0.5-0.1-1.1-0.2-1.9-0.2H199
	c-0.3,0-0.6,0-0.8-0.1c0.1,0,0.1,0,0.2,0c-0.1,0-0.1,0-0.2,0c-0.1,0-0.1-0.1-0.2-0.1c0.1,0,0.1,0.1,0.2,0.1
	c-0.3-0.1-0.6-0.3-0.7-0.5c-0.2-0.2-0.2-0.5-0.2-0.9c0,0,0-0.1,0-0.1c0-0.2,0-0.4,0.1-0.6c0-0.1,0-0.1,0.1-0.2
	c0.1-0.1,0.1-0.2,0.2-0.3c0.1-0.1,0.2-0.2,0.3-0.3c0.2-0.1,0.3-0.2,0.5-0.2c0.3-0.1,0.6-0.1,0.9-0.1h6.9v-2.4H199
	c-0.8,0-1.4,0.1-2,0.2c-0.6,0.1-1,0.4-1.4,0.6c-0.2,0.2-0.4,0.3-0.5,0.6c-0.2,0.2-0.3,0.5-0.4,0.7c-0.1,0.3-0.2,0.6-0.2,0.9
	c0,0.3-0.1,0.7-0.1,1c0,0,0,0,0,0s0,0,0,0c0,0,0,0.1,0,0.1c0,0.6,0.1,1.2,0.3,1.7c0.1,0.2,0.2,0.5,0.4,0.7c0.1,0.2,0.3,0.4,0.5,0.5
	c0.3,0.3,0.8,0.5,1.3,0.6c0.5,0.1,1.2,0.2,1.9,0.2h3.3c0.6,0,1.1,0.1,1.4,0.3c0.2,0.1,0.3,0.2,0.4,0.4c0.1,0.1,0.1,0.2,0.1,0.3
	c0,0.1,0.1,0.3,0.1,0.5c0,0.3-0.1,0.6-0.2,0.8c-0.1,0.2-0.3,0.4-0.5,0.5c-0.2,0.1-0.4,0.1-0.6,0.2c-0.2,0-0.5,0.1-0.9,0.1h-6.9v2.4
	h5.3v1.8h0.5c0.4,0,0.6,0,0.8,0.1c0.1,0,0.1,0.1,0.2,0.2c0,0.1,0.1,0.1,0.1,0.2c0,0.2-0.1,0.3-0.1,0.4c0,0-0.1,0.1-0.1,0.1
	c-0.1,0.1-0.3,0.1-0.4,0.1c-0.2,0-0.6,0-1-0.1c-0.4-0.1-0.8-0.1-1.3-0.3h0v1.1h0c0.2,0.1,0.4,0.1,0.7,0.2c0.7,0.1,1.3,0.2,1.8,0.2
	c0.4,0,0.7,0,0.9-0.1c0.2-0.1,0.4-0.1,0.5-0.2c0.1-0.1,0.2-0.2,0.3-0.2c0.1-0.1,0.2-0.2,0.3-0.4c0-0.1,0-0.1,0.1-0.2
	c0-0.2,0.1-0.3,0.1-0.5c0,0,0,0,0,0v0c0-0.3,0-0.5-0.1-0.7c-0.1-0.2-0.2-0.4-0.4-0.5c-0.2-0.1-0.4-0.2-0.6-0.3
	c-0.2-0.1-0.5-0.1-0.9-0.1h-0.1v-0.7h1.1c0.7,0,1.4-0.1,2-0.2c0.6-0.1,1-0.4,1.4-0.6c0.2-0.2,0.4-0.3,0.6-0.5
	c0.2-0.2,0.3-0.4,0.4-0.7c0.1-0.3,0.2-0.5,0.2-0.8c0.1-0.3,0.1-0.6,0.1-1c0-0.7-0.1-1.3-0.3-1.8C206.6,80.7,206.5,80.5,206.3,80.3z
	 M194.9,86.7L194.9,86.7l0-2.3h0V86.7z M198.7,90.3C198.7,90.3,198.7,90.3,198.7,90.3l0-1.1c0,0,0,0,0,0V90.3z M204,82.9
	C204,82.9,204,82.9,204,82.9C204,82.9,204,82.9,204,82.9C204,82.9,204,82.9,204,82.9z M205.8,79.8c0.1,0.1,0.2,0.2,0.3,0.3
	C206,80,206,79.9,205.8,79.8c-0.1-0.1-0.2-0.1-0.3-0.2C205.7,79.7,205.8,79.7,205.8,79.8z M206.2,85.3c-0.2,0.2-0.3,0.4-0.6,0.5
	c-0.1,0.1-0.2,0.1-0.3,0.1c0.1-0.1,0.2-0.1,0.3-0.1C205.9,85.7,206.1,85.5,206.2,85.3C206.2,85.3,206.2,85.3,206.2,85.3z
	 M206.6,84.6c-0.1,0.2-0.2,0.4-0.3,0.6c0.2-0.2,0.3-0.5,0.4-0.8C206.6,84.5,206.6,84.6,206.6,84.6z M327.2,73.5L327.2,73.5l0,13.2
	h2.9V73.5L327.2,73.5L327.2,73.5z M327.2,73.5h2.9v0L327.2,73.5L327.2,73.5z M335.8,73.6c-0.5,0.1-0.9,0.2-1.3,0.3
	c-0.4,0.1-0.8,0.3-1.1,0.6c-0.3,0.2-0.6,0.5-0.9,0.8c0,0,0,0,0,0.1c0,0,0,0,0,0c-0.2,0.3-0.4,0.5-0.6,0.9c0,0,0,0,0,0c0,0,0,0,0,0.1
	c-0.2,0.3-0.3,0.7-0.4,1.1c0,0,0,0,0,0.1c-0.1,0.4-0.2,0.8-0.2,1.3c0,0,0,0,0,0.1c-0.1,0.5-0.1,1-0.1,1.5c0,0.6,0,1.2,0.1,1.7
	c0.1,0.5,0.2,1,0.4,1.4c0.2,0.4,0.3,0.7,0.5,1.1c0.2,0.3,0.4,0.6,0.7,0.8c0.3,0.2,0.6,0.5,0.9,0.6c0.3,0.2,0.7,0.3,1,0.4
	c0.6,0.2,1.4,0.3,2.4,0.3h0.5v1.6h0.5c0.4,0,0.6,0,0.8,0.1c-0.1,0-0.2-0.1-0.3-0.1c0.1,0,0.2,0.1,0.3,0.1l0,0c0.1,0,0.1,0.1,0.2,0.1
	c0,0.1,0.1,0.1,0.1,0.2c0,0.2-0.1,0.3-0.1,0.4c0,0-0.1,0.1-0.2,0.1c-0.1,0.1-0.2,0.1-0.4,0.1c-0.2,0-0.6,0-1-0.1
	c-0.4,0-0.8-0.1-1.3-0.3h0v1.1c0.3,0.1,0.5,0.1,0.7,0.2c0.7,0.1,1.3,0.2,1.8,0.2c0.4,0,0.7,0,0.9-0.1c0.3-0.1,0.5-0.2,0.7-0.3
	c0.2-0.1,0.3-0.3,0.4-0.5c0,0,0,0,0,0c0,0,0,0,0,0c0.1-0.2,0.1-0.5,0.1-0.7c0-0.3,0-0.5-0.1-0.7c-0.1-0.2-0.2-0.4-0.4-0.5
	c-0.2-0.1-0.4-0.2-0.6-0.3c0,0,0,0,0,0c0,0,0,0,0,0c-0.2-0.1-0.4-0.1-0.6-0.1c-0.1,0-0.1,0-0.2,0h-0.1v-0.6h3.2v-2.3h-4.6
	c-0.6,0-1.2-0.1-1.6-0.3c-0.2-0.1-0.4-0.2-0.6-0.3c-0.2-0.1-0.3-0.3-0.4-0.5c-0.2-0.3-0.3-0.7-0.4-1.1c0,0,0-0.1,0-0.1
	c-0.1-0.5-0.1-1-0.1-1.6c0-0.7,0-1.4,0.1-1.9c0.1-0.5,0.2-1,0.4-1.3c0.1-0.1,0.1-0.2,0.2-0.3c0.1-0.2,0.2-0.3,0.4-0.4
	c0.1-0.1,0.3-0.3,0.5-0.3c0.2-0.1,0.5-0.2,0.7-0.3c0.3-0.1,0.6-0.1,0.9-0.1h4.6v-2.3h-4.6C336.8,73.5,336.3,73.5,335.8,73.6z
	 M332.9,85.3C332.9,85.3,332.9,85.3,332.9,85.3c0,0,0.1,0,0.1,0.1C333,85.4,332.9,85.4,332.9,85.3z M336.2,90.1L336.2,90.1
	C336.2,90.1,336.2,90.2,336.2,90.1C336.2,90.2,336.2,90.1,336.2,90.1z M337.8,88.3h0.5c0.1,0,0.2,0,0.3,0c-0.1,0-0.2,0-0.3,0
	L337.8,88.3L337.8,88.3z M333.4,74.5c0.3-0.2,0.7-0.4,1-0.5C334.1,74.1,333.7,74.3,333.4,74.5z M361.4,73.5h-2.9l0,0h0l-0.3,0.7
	l-3.8,9.2l-1.6-4l-2.4-5.8l0.4,0.9l-0.4-0.9h0v0h-3.1l5.7,13.2h2.9L361.4,73.5L361.4,73.5z M354.4,83.3L354.4,83.3l0.2-0.5
	L354.4,83.3z M355.9,86.7L355.9,86.7l0.8-1.9L355.9,86.7z M286.5,84.3c-0.4-0.1-0.7-0.3-0.9-0.6c0,0-0.1,0-0.1-0.1
	c0-0.1-0.1-0.1-0.1-0.2c-0.1-0.2-0.2-0.4-0.2-0.6c-0.1-0.4-0.1-0.9-0.1-1.5v-7.8h-2.8v7.8c0,0.9,0.1,1.6,0.2,2.1
	c0.1,0.4,0.2,0.7,0.4,1c0.2,0.3,0.4,0.6,0.6,0.8c0.3,0.3,0.6,0.5,0.9,0.7c0.3,0.2,0.7,0.3,1.1,0.4c0.5,0.1,1.3,0.2,2.4,0.2h3.5v-2.2
	h-3.3C287.5,84.5,286.9,84.4,286.5,84.3z M365,73.6c-0.5,0.1-0.9,0.2-1.3,0.3c-0.4,0.1-0.8,0.3-1.1,0.6c0,0,0,0,0,0
	c-0.3,0.2-0.6,0.5-0.9,0.8c-0.2,0.3-0.4,0.6-0.6,0.9c-0.2,0.3-0.3,0.7-0.4,1.2c-0.1,0.4-0.2,0.9-0.3,1.4c-0.1,0.5-0.1,1-0.1,1.6
	c0,0.6,0,1.2,0.1,1.7c0.1,0.5,0.2,1,0.4,1.4c0,0,0,0,0,0.1c0,0,0,0,0,0c0.1,0.3,0.2,0.5,0.4,0.7c-0.1-0.2-0.2-0.4-0.3-0.7
	c0.1,0.2,0.2,0.5,0.3,0.7c0,0,0,0.1,0,0.1c0,0.1,0.1,0.2,0.1,0.2c0-0.1-0.1-0.1-0.1-0.2c0.3,0.4,0.6,0.8,1,1.2c0,0-0.1-0.1-0.1-0.1
	c0,0,0.1,0.1,0.1,0.1c0.1,0.1,0.3,0.2,0.4,0.3c0.1,0.1,0.2,0.2,0.3,0.2c0.3,0.2,0.7,0.3,1,0.4c0.3,0.1,0.6,0.1,1,0.2
	c0.4,0,0.9,0.1,1.4,0.1h4.7v-2.3h-4.6c-0.6,0-1.1-0.1-1.5-0.2c-0.4-0.1-0.7-0.3-1-0.6c-0.2-0.3-0.4-0.6-0.5-1
	c-0.1-0.4-0.2-0.9-0.2-1.5h7.7v-2.3h-7.7c0-0.5,0.1-0.9,0.2-1.3c0.1-0.4,0.4-0.7,0.6-1c0.3-0.3,0.6-0.4,1-0.6
	c0.4-0.1,0.8-0.2,1.3-0.2h4.6v-2.3h-4.6C366,73.5,365.5,73.5,365,73.6z M360.4,80.2c0-0.5,0-1,0.1-1.4c0.1-0.5,0.1-0.9,0.3-1.3
	C360.5,78.2,360.4,79.1,360.4,80.2z M360.7,77.4c0.1-0.4,0.3-0.8,0.4-1.1c0,0,0,0,0,0C361,76.6,360.8,77,360.7,77.4z M361.8,75.3
	c0.2-0.3,0.5-0.5,0.9-0.8C362.3,74.7,362,75,361.8,75.3z M362.6,74.5c0.3-0.2,0.7-0.4,1.1-0.5C363.3,74.1,363,74.3,362.6,74.5z
	 M291.6,83.5c0.1,0.4,0.3,0.7,0.5,1C291.9,84.2,291.8,83.8,291.6,83.5z M295.8,73.6c-0.5,0.1-0.9,0.2-1.3,0.3
	c-0.4,0.1-0.8,0.3-1.1,0.6c-0.3,0.2-0.6,0.5-0.9,0.8c0,0,0,0,0,0c0,0,0,0,0,0c0,0,0,0,0,0c-0.2,0.3-0.4,0.6-0.6,0.9
	c-0.2,0.3-0.3,0.7-0.4,1.2c-0.1,0.4-0.2,0.9-0.3,1.4c-0.1,0.5-0.1,1-0.1,1.6c0,0.6,0,1.2,0.1,1.7c0.1,0.5,0.2,1,0.4,1.4
	c0,0,0,0,0,0.1c0,0,0,0,0,0c0.4,1,1,1.7,1.7,2.2c-0.2-0.1-0.3-0.2-0.5-0.4c0.3,0.2,0.6,0.5,0.9,0.6c0.3,0.2,0.7,0.3,1,0.4
	c0.6,0.2,1.4,0.3,2.4,0.3h4.7v-2.3h-4.6c-0.6,0-1-0.1-1.5-0.2c-0.4-0.1-0.7-0.3-1-0.6c0,0,0,0,0,0c-0.2-0.2-0.4-0.6-0.5-1
	c-0.1-0.4-0.2-0.9-0.2-1.5h7.7v-2.3h-7.7c0-0.2,0-0.4,0-0.6c0-0.3,0.1-0.5,0.2-0.7c0.1-0.2,0.1-0.3,0.2-0.5c0,0,0,0,0,0c0,0,0,0,0,0
	c0.1-0.2,0.2-0.3,0.3-0.5c0,0,0,0,0,0c0,0,0-0.1,0.1-0.1c0,0,0,0,0,0c0,0,0,0,0,0.1c0,0,0,0,0.1-0.1c0.2-0.2,0.5-0.4,0.7-0.5
	c0.1,0,0.2-0.1,0.4-0.1c0.3-0.1,0.7-0.2,1.2-0.2h4.6v-2.3h-4.6C296.8,73.5,296.2,73.5,295.8,73.6z M291.1,80.3c0-0.5,0-1,0.1-1.5
	C291.1,79.3,291.1,79.7,291.1,80.3z M292.5,75.3c0.2-0.3,0.5-0.5,0.8-0.7C293,74.7,292.8,75,292.5,75.3z M313.3,80.7
	c0.3-0.2,0.6-0.5,0.8-0.8c0.2-0.3,0.4-0.7,0.5-1.1c0-0.2,0.1-0.4,0.1-0.6c0-0.3,0.1-0.5,0.1-0.8c0-0.3,0-0.5-0.1-0.7
	c0-0.1,0-0.2,0-0.3c-0.1-0.3-0.1-0.6-0.2-0.9c-0.1-0.3-0.2-0.5-0.4-0.7c0-0.1-0.1-0.1-0.1-0.1c-0.1-0.1-0.2-0.3-0.4-0.4
	c0,0,0,0-0.1-0.1c-0.4-0.3-0.8-0.5-1.4-0.6c-0.6-0.1-1.2-0.2-2-0.2h-6.8v13.2h2.8v-5.2h3.3l1,1.7l1.9,3.4h3.1l-3.3-5.5
	C312.6,81.1,313,80.9,313.3,80.7z M314.1,74.9c0,0,0,0.1,0.1,0.1c-0.1-0.1-0.1-0.2-0.2-0.3C314.1,74.8,314.1,74.9,314.1,74.9z
	 M313.6,74.3C313.6,74.3,313.6,74.4,313.6,74.3C313.6,74.4,313.6,74.3,313.6,74.3C313.6,74.3,313.6,74.3,313.6,74.3z M306.2,75.9
	L306.2,75.9l3.4,0c0.1,0,0.1,0,0.2,0c-0.1,0-0.1,0-0.2,0H306.2z M311.6,78.7c-0.1,0.1-0.1,0.1-0.2,0.1c0,0-0.1,0.1-0.1,0.1
	c0,0,0,0,0,0c0,0,0,0,0,0c0,0,0,0,0,0c0,0-0.1,0-0.1,0c-0.4,0.1-0.9,0.2-1.6,0.2h-3.4v-3.3h3.4c0.3,0,0.6,0,0.9,0c0.1,0,0.1,0,0.2,0
	c0.3,0,0.5,0.1,0.7,0.2c0.2,0.1,0.4,0.3,0.6,0.5c0.1,0.2,0.2,0.5,0.2,0.9c0,0.3-0.1,0.6-0.2,0.9C311.8,78.5,311.7,78.6,311.6,78.7z
	 M312.3,86.7L312.3,86.7l-0.3-0.6L312.3,86.7z"/>
<path class="st2" d="M89.2,1.6H10.7C4.8,1.6,0,6.4,0,12.3v42.6c1.6-3.3,3.9-5.7,6-5.9c3.1-0.3,2.6,2.4,1.9,4.2c-0.7,1.8-3,9,2.4,9.4
	c5.4,0.4,8.3-4.1,8.3-12.8c0-10-0.5-20.2-8.8-22.6c0,0-4.3-0.8-4.3-4.3v-8.1h25.7v8.8h-6.9c0,0-1.8-0.2-1.8,2c0,2.1,4.9,4.3,4,15.5
	c-0.2,2.1,1.8-1.1,3.1-3.5c1.7-3.1,11.8-26.2,26.8-26.6c15-0.4,31.1,0,31.1,0s3.1,0.2,2.4,1.4c-0.7,1.2-3.8,4-1.5,7
	c2.2,3,3.3,5.1,3.3,5.1H60.1c-9.3,0-12.7,4.6-15.4,8.7C42.1,37.3,33.7,52.7,31,58c-2.7,5.3-9.9,19.9-21.2,19.9
	c-4.5,0-7.8-2.1-9.8-5.2v8c2,0.9,5.5,2.6,10.7,2.6c24,0,32.7-53.3,47.7-53.3c15,0,30.9,0,30.9,0s3.1-0.1,2.4,1.2
	c-0.7,1.2-3.8,2.1-1.5,5.2c2.2,3,1.3,3.9,1.3,3.9s-29.1,0-30.2,0c-10,0-20,43.8-42.6,51.3H29c18.4-13.9,25-46.8,36.8-46.8
	c15,0,23.4,0,23.4,0s3.1-0.1,2.4,1.2c-0.7,1.2-3.8,2.1-1.5,5.2c2.2,3,1.3,3.9,1.3,3.9s-21.6,0-22.7,0c-6.9,0-13.4,21.1-26.3,36.5
	h46.8c5.9,0,10.7-4.8,10.7-10.7V12.3C99.8,6.4,95.1,1.6,89.2,1.6z"/>
</svg>
